<svg xmlns="http://www.w3.org/2000/svg" viewBox="0 0 600 300"><g><text x="50%" y="0" style="fill: rgb(54, 58, 61); dominant-baseline: text-before-edge; text-anchor: middle; font-weight: bold; font-size: 13px; font-family: sans-serif;">MSE per Epoch (mean, std.) on the Validation-Set</text></g><g transform="translate(0, 22)"><svg class="rv-xy-plot__inner" width="600" height="278"><g transform="translate(40,5)" class="rv-xy-plot__grid-lines"><line y1="243" y2="243" x1="0" x2="540" class="rv-xy-plot__grid-lines__line" style="stroke-width: 0.5;"/><line y1="204.8871729225367" y2="204.8871729225367" x1="0" x2="540" class="rv-xy-plot__grid-lines__line" style="stroke-width: 0.5;"/><line y1="166.7743458450734" y2="166.7743458450734" x1="0" x2="540" class="rv-xy-plot__grid-lines__line" style="stroke-width: 0.5;"/><line y1="128.66151876761015" y2="128.66151876761015" x1="0" x2="540" class="rv-xy-plot__grid-lines__line" style="stroke-width: 0.5;"/><line y1="90.54869169014685" y2="90.54869169014685" x1="0" x2="540" class="rv-xy-plot__grid-lines__line" style="stroke-width: 0.5;"/><line y1="52.43586461268357" y2="52.43586461268357" x1="0" x2="540" class="rv-xy-plot__grid-lines__line" style="stroke-width: 0.5;"/><line y1="14.323037535220301" y2="14.323037535220301" x1="0" x2="540" class="rv-xy-plot__grid-lines__line" style="stroke-width: 0.5;"/></g><path d="M0,0L5.454545454545455,73.15527539163676L10.90909090909091,89.89977106063492L16.363636363636363,102.56783829014057L21.81818181818182,113.2492992013513L27.272727272727273,124.24121861885146L32.72727272727273,134.4106812022566L38.18181818181818,144.4461660534426L43.63636363636364,154.49395832494105L49.09090909090909,163.63902676916518L54.54545454545455,171.254223359731L60,177.70414616683036L65.45454545454545,179.7797462946725L70.90909090909092,190.04945995741951L76.36363636363636,194.8352220545459L81.81818181818183,200.29746841288716L87.27272727272728,203.36285322999987L92.72727272727272,207.3026046952502L98.18181818181819,209.6421036596139L103.63636363636363,212.56546524957278L109.0909090909091,211.35905792656527L114.54545454545455,216.4118710224605L120,217.46760030129235L125.45454545454545,218.94909011465123L130.9090909090909,220.14654240113597L136.36363636363637,219.53044524392232L141.81818181818184,220.86693800153245L147.27272727272725,221.74691453591268L152.72727272727272,221.7504869717867L158.1818181818182,220.84264985038237L163.63636363636365,223.10921572558848L169.0909090909091,223.53681739023529L174.54545454545456,222.93636154811009L180,222.73351149388958L185.45454545454544,223.58310351880476L190.9090909090909,223.86431002856258L196.36363636363637,223.35501313004235L201.81818181818184,224.02600288882482L207.27272727272725,225.00701198914277L212.72727272727272,225.1018111080194L218.1818181818182,225.45504345164238L223.63636363636363,224.86164173060064L229.0909090909091,224.74836092231618L234.54545454545456,224.42931108844596L240,224.28872828331342L245.45454545454544,224.2006027717822L250.9090909090909,225.73439747225683L256.3636363636364,224.50984652388357L261.8181818181818,224.93653968664196L267.2727272727273,225.9499827642028L272.72727272727275,227.26234755127837L278.1818181818182,225.37486748423308L283.6363636363637,225.86306285411777L289.0909090909091,224.85952160093183L294.5454545454545,226.61814476077896L300,225.5784724221716L305.45454545454544,225.8060749244004L310.90909090909093,225.34758271801073L316.3636363636364,225.91812798799458L321.8181818181818,226.41338156429558L327.2727272727273,226.19071570144737L332.7272727272727,226.80323615406192L338.1818181818182,226.31375442547565L343.6363636363636,223.80790707578848L349.0909090909091,226.7756720769307L354.54545454545456,226.78808266823344L360,226.33255850021976L365.4545454545455,226.38874133445606L370.9090909090909,227.59299663588297L376.3636363636364,225.95442817642729L381.8181818181818,226.7648104966012L387.27272727272725,225.786643086956L392.72727272727275,226.19451264651497L398.1818181818182,225.94732968129787L403.6363636363637,226.25919590857777L409.09090909090907,226.95182741981122L414.5454545454545,226.33057910404986L420,225.9138943613666L425.45454545454544,226.1329111466499L430.90909090909093,226.05653538166362L436.3636363636364,226.40843365639896L441.81818181818187,227.1054406208956L447.27272727272725,227.0022760024923L452.7272727272727,226.10674540095022L458.1818181818182,225.94230111756457L463.6363636363636,226.93184455827847L469.0909090909091,227.05569057164598L474.54545454545456,228.01256896329164L480,226.4949574781021L485.45454545454544,225.94884394131273L490.9090909090909,226.57239790405475L496.3636363636364,225.70549016701395L501.8181818181818,227.26820350764922L507.2727272727273,226.799802260616L512.7272727272727,227.22188284686902L518.1818181818181,226.70420425619054L523.6363636363636,226.02975264388496L529.0909090909091,227.49351795619916L534.5454545454546,228.2749338524034L540,226.72970470556388L540,235.40834534757028L534.5454545454546,235.7254207480146L529.0909090909091,235.29012800730456L523.6363636363636,235.37663288304597L518.1818181818181,235.44616349728776L512.7272727272727,235.37171912729613L507.2727272727273,235.101313385232L501.8181818181818,235.33856531452426L496.3636363636364,235.55647121776735L490.9090909090909,235.46018843070595L485.45454545454544,235.2425015402753L480,235.0458008552474L474.54545454545456,235.1108413930764L469.0909090909091,235.27987176738836L463.6363636363636,235.08813943842958L458.1818181818182,234.86453857581324L452.7272727272727,235.0059287718493L447.27272727272725,235.3098133638105L441.81818181818187,235.5563515332974L436.3636363636364,235.12349882023034L430.90909090909093,235.19906968361443L425.45454545454544,235.09578964762898L420,234.97804625255318L414.5454545454545,235.28080448732808L409.09090909090907,234.9975092176679L403.6363636363637,234.49464011391407L398.1818181818182,234.5021977213126L392.72727272727275,234.90896755164405L387.27272727272725,235.3634380121054L381.8181818181818,235.0283128442823L376.3636363636364,235.3224831369386L370.9090909090909,235.01735947386732L365.4545454545455,235.40100772125774L360,234.94863001303827L354.54545454545456,234.6870887273744L349.0909090909091,234.59852046423975L343.6363636363636,235.73716604298386L338.1818181818182,234.2620796789968L332.7272727272727,234.46880535985L327.2727272727273,234.22076323229692L321.8181818181818,234.15425178003363L316.3636363636364,234.38670824446336L310.90909090909093,234.46670912086418L305.45454545454544,234.23068712522775L300,234.12799441641744L294.5454545454545,233.5307527427147L289.0909090909091,234.3736612486292L283.6363636363637,233.42412976312943L278.1818181818182,233.63330350002707L272.72727272727275,233.5187719168407L267.2727272727273,233.90315262968213L261.8181818181818,233.4306049354371L256.3636363636364,232.9980872192811L250.9090909090909,232.74709525755534L245.45454545454544,232.39005732648596L240,232.97788334189855L234.54545454545456,232.84317014963455L229.0909090909091,232.3982165166325L223.63636363636363,231.929594088793L218.1818181818182,231.5589931494259L212.72727272727272,231.92988399242535L207.27272727272725,231.23982884687163L201.81818181818184,231.71726257095506L196.36363636363637,231.55271139242L190.9090909090909,230.92129834268417L185.45454545454544,230.63277834515156L180,230.98052883936842L174.54545454545456,230.37041331920594L169.0909090909091,229.78599224135638L163.63636363636365,229.5160358886337L158.1818181818182,230.1474227213462L152.72727272727272,229.55566319034014L147.27272727272725,228.05379952147305L141.81818181818184,227.38049221174595L136.36363636363637,227.91202990779848L130.9090909090909,226.11688673108395L125.45454545454545,225.72039330678604L120,225.15021103432576L114.54545454545455,224.21014572206275L109.0909090909091,225.73493018866162L103.63636363636363,222.38034293257138L98.18181818181819,221.47312424897058L92.72727272727272,219.30145816878766L87.27272727272728,217.50664335044593L81.81818181818183,215.0753752877202L76.36363636363636,211.4721663874448L70.90909090909092,207.8149278543352L65.45454545454545,203.95002424158181L60,197.43398114920507L54.54545454545455,190.59997346977923L49.09090909090909,182.10405584149734L43.63636363636364,171.01895461664753L38.18181818181818,159.375792855726L32.72727272727273,148.10727464911764L27.272727272727273,137.2959112846814L21.81818181818182,127.53963702695023L16.363636363636363,118.87365995028055L10.90909090909091,109.2313733534197L5.454545454545455,93.90684856313293L0,55.22513465352529Z" class="rv-xy-plot__series rv-xy-plot__series--line" transform="translate(40,5)" style="opacity: 1; stroke: rgba(0, 0, 0, 0); fill: rgba(51, 141, 216, 0.1);"/><path d="M0,27.612567326762644L5.454545454545455,83.53106197738485L10.90909090909091,99.5655722070273L16.363636363636363,110.72074912021058L21.81818181818182,120.39446811415078L27.272727272727273,130.76856495176642L32.72727272727273,141.25897792568713L38.18181818181818,151.91097945458426L43.63636363636364,162.75645647079426L49.09090909090909,172.87154130533125L54.54545454545455,180.9270984147551L60,187.5690636580177L65.45454545454545,191.86488526812718L70.90909090909092,198.93219390587737L76.36363636363636,203.15369422099533L81.81818181818183,207.6864218503037L87.27272727272728,210.4347482902229L92.72727272727272,213.30203143201894L98.18181818181819,215.55761395429224L103.63636363636363,217.47290409107208L109.0909090909091,218.54699405761346L114.54545454545455,220.31100837226165L120,221.30890566780906L125.45454545454545,222.33474171071865L130.9090909090909,223.13171456610993L136.36363636363637,223.72123757586039L141.81818181818184,224.1237151066392L147.27272727272725,224.90035702869287L152.72727272727272,225.65307508106343L158.1818181818182,225.4950362858643L163.63636363636365,226.31262580711112L169.0909090909091,226.6614048157958L174.54545454545456,226.653387433658L180,226.85702016662898L185.45454545454544,227.10794093197816L190.9090909090909,227.39280418562336L196.36363636363637,227.4538622612312L201.81818181818184,227.87163272988994L207.27272727272725,228.12342041800719L212.72727272727272,228.51584755022236L218.1818181818182,228.50701830053413L223.63636363636363,228.39561790969682L229.0909090909091,228.57328871947433L234.54545454545456,228.63624061904025L240,228.63330581260598L245.45454545454544,228.29533004913407L250.9090909090909,229.2407463649061L256.3636363636364,228.75396687158232L261.8181818181818,229.18357231103954L267.2727272727273,229.92656769694247L272.72727272727275,230.39055973405954L278.1818181818182,229.50408549213006L283.6363636363637,229.64359630862361L289.0909090909091,229.61659142478052L294.5454545454545,230.07444875174681L300,229.85323341929453L305.45454545454544,230.0183810248141L310.90909090909093,229.90714591943745L316.3636363636364,230.15241811622897L321.8181818181818,230.28381667216462L327.2727272727273,230.20573946687213L332.7272727272727,230.63602075695596L338.1818181818182,230.28791705223622L343.6363636363636,229.77253655938614L349.0909090909091,230.68709627058524L354.54545454545456,230.73758569780392L360,230.64059425662902L365.4545454545455,230.8948745278569L370.9090909090909,231.30517805487514L376.3636363636364,230.63845565668294L381.8181818181818,230.89656167044177L387.27272727272725,230.57504054953068L392.72727272727275,230.55174009907952L398.1818181818182,230.22476370130522L403.6363636363637,230.37691801124592L409.09090909090907,230.97466831873956L414.5454545454545,230.80569179568897L420,230.4459703069599L425.45454545454544,230.61435039713942L430.90909090909093,230.627802532639L436.3636363636364,230.76596623831463L441.81818181818187,231.3308960770965L447.27272727272725,231.15604468315138L452.7272727272727,230.55633708639976L458.1818181818182,230.4034198466889L463.6363636363636,231.00999199835402L469.0909090909091,231.16778116951716L474.54545454545456,231.56170517818404L480,230.77037916667476L485.45454545454544,230.59567274079401L490.9090909090909,231.01629316738035L496.3636363636364,230.63098069239064L501.8181818181818,231.3033844110867L507.2727272727273,230.950557822924L512.7272727272727,231.29680098708258L518.1818181818181,231.07518387673915L523.6363636363636,230.70319276346544L529.0909090909091,231.39182298175186L534.5454545454546,232.00017730020903L540,231.06902502656706" class="rv-xy-plot__series rv-xy-plot__series--line" transform="translate(40,5)" style="opacity: 1; stroke-width: 1.5; stroke: rgb(51, 141, 216);"/><g class="rv-xy-plot__series rv-xy-plot__series--mark" transform="translate(40,5)"><circle r="2" cx="540" cy="231.06902502656706" style="opacity: 1; stroke: rgb(51, 141, 216); fill: rgb(51, 141, 216); stroke-width: 1;"/></g><defs class="rv-gradient-defs"><linearGradient id="leftFadeGradient" x1="0" x2="1" y1="0" y2="0"><stop offset="0%" stop-color="white" stop-opacity="1"/><stop offset="60%" stop-color="white" stop-opacity="1"/><stop offset="100%" stop-color="white" stop-opacity="0"/></linearGradient><linearGradient id="rightFadeGradient" x1="1" x2="0" y1="0" y2="0"><stop offset="0%" stop-color="white" stop-opacity="1"/><stop offset="100%" stop-color="white" stop-opacity="0"/></linearGradient><linearGradient id="bottomFadeGradient" x1="0" x2="0" y1="1" y2="0"><stop offset="0%" stop-color="white" stop-opacity="1"/><stop offset="40%" stop-color="white" stop-opacity="1"/><stop offset="100%" stop-color="white" stop-opacity="0"/></linearGradient><linearGradient id="topFadeGradient" x1="0" x2="0" y1="0" y2="1"><stop offset="0%" stop-color="white" stop-opacity="1"/><stop offset="100%" stop-color="white" stop-opacity="0"/></linearGradient></defs><g class="rv-xy-plot__borders plot-border"><rect class="rv-xy-plot__borders-bottom plot-border-bottom" x="0" y="248" width="600" height="30" style="fill: url(&quot;#bottomFadeGradient&quot;); opacity: 1;"/><rect class="rv-xy-plot__borders-left plot-border-left" x="0" y="0" width="40" height="278" style="fill: url(&quot;#leftFadeGradient&quot;); opacity: 1;"/><rect class="rv-xy-plot__borders-right plot-border-right" x="580" y="0" width="20" height="278" style="fill: url(&quot;#rightFadeGradient&quot;); opacity: 1;"/><rect class="rv-xy-plot__borders-top plot-border-top" x="0" y="0" width="600" height="5" style="fill: url(&quot;#topFadeGradient&quot;); opacity: 1;"/></g><g transform="translate(40,248)" class="rv-xy-plot__axis rv-xy-plot__axis--horizontal"><line x1="0" x2="540" y1="0" y2="0" class="rv-xy-plot__axis__line"/><g transform="translate(0, 0)" class="rv-xy-plot__axis__ticks"/></g><g transform="translate(40,248)" class="rv-xy-plot__axis rv-xy-plot__axis--horizontal" style="font-family: &quot;Source Sans Pro&quot;; fill: rgb(107, 107, 118); font-size: 11px;"><line x1="0" x2="540" y1="0" y2="0" class="rv-xy-plot__axis__line" style="font-family: &quot;Source Sans Pro&quot;; fill: rgb(107, 107, 118); font-size: 11px; stroke-width: 0;"/><g transform="translate(0, 0)" class="rv-xy-plot__axis__ticks"><g transform="translate(0, 0)" class="rv-xy-plot__axis__tick" style="font-family: &quot;Source Sans Pro&quot;; fill: rgb(107, 107, 118); font-size: 11px;"><line x1="0" x2="0" y1="-6" y2="6" class="rv-xy-plot__axis__tick__line" style="font-family: &quot;Source Sans Pro&quot;; fill: rgb(107, 107, 118); font-size: 11px; stroke-width: 0;"/><text text-anchor="middle" dy="0.72em" transform="translate(0, 14)" class="rv-xy-plot__axis__tick__text" style="font-family: sans-serif; fill: rgb(107, 107, 118); font-size: 11px;">0</text></g><g transform="translate(109.0909090909091, 0)" class="rv-xy-plot__axis__tick" style="font-family: &quot;Source Sans Pro&quot;; fill: rgb(107, 107, 118); font-size: 11px;"><line x1="0" x2="0" y1="-6" y2="6" class="rv-xy-plot__axis__tick__line" style="font-family: &quot;Source Sans Pro&quot;; fill: rgb(107, 107, 118); font-size: 11px; stroke-width: 0;"/><text text-anchor="middle" dy="0.72em" transform="translate(0, 14)" class="rv-xy-plot__axis__tick__text" style="font-family: sans-serif; fill: rgb(107, 107, 118); font-size: 11px;">20</text></g><g transform="translate(218.1818181818182, 0)" class="rv-xy-plot__axis__tick" style="font-family: &quot;Source Sans Pro&quot;; fill: rgb(107, 107, 118); font-size: 11px;"><line x1="0" x2="0" y1="-6" y2="6" class="rv-xy-plot__axis__tick__line" style="font-family: &quot;Source Sans Pro&quot;; fill: rgb(107, 107, 118); font-size: 11px; stroke-width: 0;"/><text text-anchor="middle" dy="0.72em" transform="translate(0, 14)" class="rv-xy-plot__axis__tick__text" style="font-family: sans-serif; fill: rgb(107, 107, 118); font-size: 11px;">40</text></g><g transform="translate(327.2727272727273, 0)" class="rv-xy-plot__axis__tick" style="font-family: &quot;Source Sans Pro&quot;; fill: rgb(107, 107, 118); font-size: 11px;"><line x1="0" x2="0" y1="-6" y2="6" class="rv-xy-plot__axis__tick__line" style="font-family: &quot;Source Sans Pro&quot;; fill: rgb(107, 107, 118); font-size: 11px; stroke-width: 0;"/><text text-anchor="middle" dy="0.72em" transform="translate(0, 14)" class="rv-xy-plot__axis__tick__text" style="font-family: sans-serif; fill: rgb(107, 107, 118); font-size: 11px;">60</text></g><g transform="translate(436.3636363636364, 0)" class="rv-xy-plot__axis__tick" style="font-family: &quot;Source Sans Pro&quot;; fill: rgb(107, 107, 118); font-size: 11px;"><line x1="0" x2="0" y1="-6" y2="6" class="rv-xy-plot__axis__tick__line" style="font-family: &quot;Source Sans Pro&quot;; fill: rgb(107, 107, 118); font-size: 11px; stroke-width: 0;"/><text text-anchor="middle" dy="0.72em" transform="translate(0, 14)" class="rv-xy-plot__axis__tick__text" style="font-family: sans-serif; fill: rgb(107, 107, 118); font-size: 11px;">80</text></g></g><g transform="translate(0, 0)" class="rv-xy-plot__axis__title"><g transform="translate(534, -6) rotate(0)" style="text-anchor: end; font-family: &quot;Source Sans Pro&quot;; fill: rgb(107, 107, 118); font-size: 11px;"><text style="font-family: sans-serif; fill: rgb(107, 107, 118); font-size: 11px;">Step</text></g></g></g><g transform="translate(40,248)" class="rv-xy-plot__axis rv-xy-plot__axis--horizontal"><line x1="0" x2="0" y1="0" y2="0" class="rv-xy-plot__axis__line"/><g transform="translate(0, 0)" class="rv-xy-plot__axis__ticks"><g transform="translate(0, 0)" class="rv-xy-plot__axis__tick"><line x1="0" x2="0" y1="-6" y2="6" class="rv-xy-plot__axis__tick__line"/><text text-anchor="middle" dy="0.72em" transform="translate(0, 14)" class="rv-xy-plot__axis__tick__text" style="font-family: sans-serif;"/></g><g transform="translate(109.0909090909091, 0)" class="rv-xy-plot__axis__tick"><line x1="0" x2="0" y1="-6" y2="6" class="rv-xy-plot__axis__tick__line"/><text text-anchor="middle" dy="0.72em" transform="translate(0, 14)" class="rv-xy-plot__axis__tick__text" style="font-family: sans-serif;"/></g><g transform="translate(218.1818181818182, 0)" class="rv-xy-plot__axis__tick"><line x1="0" x2="0" y1="-6" y2="6" class="rv-xy-plot__axis__tick__line"/><text text-anchor="middle" dy="0.72em" transform="translate(0, 14)" class="rv-xy-plot__axis__tick__text" style="font-family: sans-serif;"/></g><g transform="translate(327.2727272727273, 0)" class="rv-xy-plot__axis__tick"><line x1="0" x2="0" y1="-6" y2="6" class="rv-xy-plot__axis__tick__line"/><text text-anchor="middle" dy="0.72em" transform="translate(0, 14)" class="rv-xy-plot__axis__tick__text" style="font-family: sans-serif;"/></g><g transform="translate(436.3636363636364, 0)" class="rv-xy-plot__axis__tick"><line x1="0" x2="0" y1="-6" y2="6" class="rv-xy-plot__axis__tick__line"/><text text-anchor="middle" dy="0.72em" transform="translate(0, 14)" class="rv-xy-plot__axis__tick__text" style="font-family: sans-serif;"/></g></g></g><g transform="translate(0,5)" class="rv-xy-plot__axis rv-xy-plot__axis--vertical" style="font-family: &quot;Source Sans Pro&quot;; fill: rgb(107, 107, 118); font-size: 11px;"><line x1="40" x2="40" y1="0" y2="243" class="rv-xy-plot__axis__line" style="font-family: &quot;Source Sans Pro&quot;; fill: rgb(107, 107, 118); font-size: 11px; stroke: none;"/><g transform="translate(40, 0)" class="rv-xy-plot__axis__ticks"><g transform="translate(0, 243)" class="rv-xy-plot__axis__tick" style="font-family: &quot;Source Sans Pro&quot;; fill: rgb(107, 107, 118); font-size: 11px;"><line y1="0" y2="0" x1="6" x2="-6" class="rv-xy-plot__axis__tick__line" style="font-family: &quot;Source Sans Pro&quot;; fill: rgb(107, 107, 118); font-size: 11px; stroke: none;"/><text text-anchor="end" dy="0.32em" transform="translate(-14, 0)" class="rv-xy-plot__axis__tick__text" style="font-family: sans-serif; fill: rgb(107, 107, 118); font-size: 11px;">0</text></g><g transform="translate(0, 204.8871729225367)" class="rv-xy-plot__axis__tick" style="font-family: &quot;Source Sans Pro&quot;; fill: rgb(107, 107, 118); font-size: 11px;"><line y1="0" y2="0" x1="6" x2="-6" class="rv-xy-plot__axis__tick__line" style="font-family: &quot;Source Sans Pro&quot;; fill: rgb(107, 107, 118); font-size: 11px; stroke: none;"/><text text-anchor="end" dy="0.32em" transform="translate(-14, 0)" class="rv-xy-plot__axis__tick__text" style="font-family: sans-serif; fill: rgb(107, 107, 118); font-size: 11px;">0.02</text></g><g transform="translate(0, 166.7743458450734)" class="rv-xy-plot__axis__tick" style="font-family: &quot;Source Sans Pro&quot;; fill: rgb(107, 107, 118); font-size: 11px;"><line y1="0" y2="0" x1="6" x2="-6" class="rv-xy-plot__axis__tick__line" style="font-family: &quot;Source Sans Pro&quot;; fill: rgb(107, 107, 118); font-size: 11px; stroke: none;"/><text text-anchor="end" dy="0.32em" transform="translate(-14, 0)" class="rv-xy-plot__axis__tick__text" style="font-family: sans-serif; fill: rgb(107, 107, 118); font-size: 11px;">0.04</text></g><g transform="translate(0, 128.66151876761015)" class="rv-xy-plot__axis__tick" style="font-family: &quot;Source Sans Pro&quot;; fill: rgb(107, 107, 118); font-size: 11px;"><line y1="0" y2="0" x1="6" x2="-6" class="rv-xy-plot__axis__tick__line" style="font-family: &quot;Source Sans Pro&quot;; fill: rgb(107, 107, 118); font-size: 11px; stroke: none;"/><text text-anchor="end" dy="0.32em" transform="translate(-14, 0)" class="rv-xy-plot__axis__tick__text" style="font-family: sans-serif; fill: rgb(107, 107, 118); font-size: 11px;">0.06</text></g><g transform="translate(0, 90.54869169014685)" class="rv-xy-plot__axis__tick" style="font-family: &quot;Source Sans Pro&quot;; fill: rgb(107, 107, 118); font-size: 11px;"><line y1="0" y2="0" x1="6" x2="-6" class="rv-xy-plot__axis__tick__line" style="font-family: &quot;Source Sans Pro&quot;; fill: rgb(107, 107, 118); font-size: 11px; stroke: none;"/><text text-anchor="end" dy="0.32em" transform="translate(-14, 0)" class="rv-xy-plot__axis__tick__text" style="font-family: sans-serif; fill: rgb(107, 107, 118); font-size: 11px;">0.08</text></g><g transform="translate(0, 52.43586461268357)" class="rv-xy-plot__axis__tick" style="font-family: &quot;Source Sans Pro&quot;; fill: rgb(107, 107, 118); font-size: 11px;"><line y1="0" y2="0" x1="6" x2="-6" class="rv-xy-plot__axis__tick__line" style="font-family: &quot;Source Sans Pro&quot;; fill: rgb(107, 107, 118); font-size: 11px; stroke: none;"/><text text-anchor="end" dy="0.32em" transform="translate(-14, 0)" class="rv-xy-plot__axis__tick__text" style="font-family: sans-serif; fill: rgb(107, 107, 118); font-size: 11px;">0.1</text></g><g transform="translate(0, 14.323037535220301)" class="rv-xy-plot__axis__tick" style="font-family: &quot;Source Sans Pro&quot;; fill: rgb(107, 107, 118); font-size: 11px;"><line y1="0" y2="0" x1="6" x2="-6" class="rv-xy-plot__axis__tick__line" style="font-family: &quot;Source Sans Pro&quot;; fill: rgb(107, 107, 118); font-size: 11px; stroke: none;"/><text text-anchor="end" dy="0.32em" transform="translate(-14, 0)" class="rv-xy-plot__axis__tick__text" style="font-family: sans-serif; fill: rgb(107, 107, 118); font-size: 11px;">0.12</text></g></g></g></svg></g><style xmlns="http://www.w3.org/1999/xhtml">/*&lt;![CDATA[*/<br />text { font-size: 10px; fill: black }<br />.react-vis-magic-css-import-rule{display:inherit}.rv-treemap{font-size:12px;position:relative}.rv-treemap__leaf{overflow:hidden;position:absolute}.rv-treemap__leaf--circle{align-items:center;border-radius:100%;display:flex;justify-content:center}.rv-treemap__leaf__content{overflow:hidden;padding:10px;text-overflow:ellipsis}.rv-xy-plot{color:#c3c3c3;position:relative}.rv-xy-plot canvas{pointer-events:none}.rv-xy-plot .rv-xy-canvas{pointer-events:none;position:absolute}.rv-xy-plot__inner{display:block}.rv-xy-plot__axis__line{fill:none;stroke-width:2px;stroke:#e6e6e9}.rv-xy-plot__axis__tick__line{stroke:#e6e6e9}.rv-xy-plot__axis__tick__text{fill:#6b6b76;font-size:11px}.rv-xy-plot__axis__title text{fill:#6b6b76;font-size:11px}.rv-xy-plot__grid-lines__line{stroke:#e6e6e9}.rv-xy-plot__circular-grid-lines__line{fill-opacity:0;stroke:#e6e6e9}.rv-xy-plot__series,.rv-xy-plot__series path{pointer-events:all}.rv-xy-plot__series--line{fill:none;stroke:#000;stroke-width:2px}.rv-crosshair{position:absolute;font-size:11px;pointer-events:none}.rv-crosshair__line{background:#47d3d9;width:1px}.rv-crosshair__inner{position:absolute;text-align:left;top:0}.rv-crosshair__inner__content{border-radius:4px;background:#3a3a48;color:#fff;font-size:12px;padding:7px 10px;box-shadow:0 2px 4px rgba(0,0,0,0.5)}.rv-crosshair__inner--left{right:4px}.rv-crosshair__inner--right{left:4px}.rv-crosshair__title{font-weight:bold;white-space:nowrap}.rv-crosshair__item{white-space:nowrap}.rv-hint{position:absolute;pointer-events:none}.rv-hint__content{border-radius:4px;padding:7px 10px;font-size:12px;background:#3a3a48;box-shadow:0 2px 4px rgba(0,0,0,0.5);color:#fff;text-align:left;white-space:nowrap}.rv-discrete-color-legend{box-sizing:border-box;overflow-y:auto;font-size:12px}.rv-discrete-color-legend.horizontal{white-space:nowrap}.rv-discrete-color-legend-item{color:#3a3a48;border-radius:1px;padding:9px 10px}.rv-discrete-color-legend-item.horizontal{display:inline-block}.rv-discrete-color-legend-item.horizontal .rv-discrete-color-legend-item__title{margin-left:0;display:block}.rv-discrete-color-legend-item__color{display:inline-block;vertical-align:middle;overflow:visible}.rv-discrete-color-legend-item__color__path{stroke:#dcdcdc;stroke-width:2px}.rv-discrete-color-legend-item__title{margin-left:10px}.rv-discrete-color-legend-item.disabled{color:#b8b8b8}.rv-discrete-color-legend-item.clickable{cursor:pointer}.rv-discrete-color-legend-item.clickable:hover{background:#f9f9f9}.rv-search-wrapper{display:flex;flex-direction:column}.rv-search-wrapper__form{flex:0}.rv-search-wrapper__form__input{width:100%;color:#a6a6a5;border:1px solid #e5e5e4;padding:7px 10px;font-size:12px;box-sizing:border-box;border-radius:2px;margin:0 0 9px;outline:0}.rv-search-wrapper__contents{flex:1;overflow:auto}.rv-continuous-color-legend{font-size:12px}.rv-continuous-color-legend .rv-gradient{height:4px;border-radius:2px;margin-bottom:5px}.rv-continuous-size-legend{font-size:12px}.rv-continuous-size-legend .rv-bubbles{text-align:justify;overflow:hidden;margin-bottom:5px;width:100%}.rv-continuous-size-legend .rv-bubble{background:#d8d9dc;display:inline-block;vertical-align:bottom}.rv-continuous-size-legend .rv-spacer{display:inline-block;font-size:0;line-height:0;width:100%}.rv-legend-titles{height:16px;position:relative}.rv-legend-titles__left,.rv-legend-titles__right,.rv-legend-titles__center{position:absolute;white-space:nowrap;overflow:hidden}.rv-legend-titles__center{display:block;text-align:center;width:100%}.rv-legend-titles__right{right:0}.rv-radial-chart .rv-xy-plot__series--label{pointer-events:none}<br /><br />/*]]&gt;*/</style></svg>