<svg xmlns="http://www.w3.org/2000/svg" viewBox="0 0 600 300"><g><text x="50%" y="0" style="fill: rgb(54, 58, 61); dominant-baseline: text-before-edge; text-anchor: middle; font-weight: bold; font-size: 13px; font-family: sans-serif;">Mean Squared Error train</text><svg viewBox="0 0 1024 1024" x="199.796875" y="25" height="11" width="11"><path d="M128 533.333h768c23.564 0 42.667-19.103 42.667-42.667v-85.333c0-23.564-19.103-42.667-42.667-42.667h-768c-23.564 0-42.667 19.103-42.667 42.667v85.333c0 23.564 19.103 42.667 42.667 42.667z" style="fill: rgb(71, 154, 95);"/></svg><text x="218.796875" y="23" style="fill: rgb(71, 154, 95); dominant-baseline: text-before-edge; font-size: 11px; font-family: sans-serif;"> transformer-32</text><svg viewBox="0 0 1024 1024" x="325.46875" y="25" height="11" width="11"><path d="M128 533.333h768c23.564 0 42.667-19.103 42.667-42.667v-85.333c0-23.564-19.103-42.667-42.667-42.667h-768c-23.564 0-42.667 19.103-42.667 42.667v85.333c0 23.564 19.103 42.667 42.667 42.667z" style="fill: rgb(161, 40, 100);"/></svg><text x="344.46875" y="23" style="fill: rgb(161, 40, 100); dominant-baseline: text-before-edge; font-size: 11px; font-family: sans-serif;"> U-Net-32</text></g><g transform="translate(0, 36)"><svg class="rv-xy-plot__inner" width="600" height="264"><g transform="translate(34,5)" class="rv-xy-plot__grid-lines"><line y1="229" y2="229" x1="0" x2="546" class="rv-xy-plot__grid-lines__line" style="stroke-width: 0.5;"/><line y1="179.1933881138675" y2="179.1933881138675" x1="0" x2="546" class="rv-xy-plot__grid-lines__line" style="stroke-width: 0.5;"/><line y1="129.38677622773503" y2="129.38677622773503" x1="0" x2="546" class="rv-xy-plot__grid-lines__line" style="stroke-width: 0.5;"/><line y1="79.58016434160254" y2="79.58016434160254" x1="0" x2="546" class="rv-xy-plot__grid-lines__line" style="stroke-width: 0.5;"/><line y1="29.77355245547006" y2="29.77355245547006" x1="0" x2="546" class="rv-xy-plot__grid-lines__line" style="stroke-width: 0.5;"/></g><path d="M0,0L1.094188376753507,7.764889520906155L2.188376753507014,9.969921315628342L3.282565130260521,11.325899763693243L4.376753507014028,13.042253622666207L5.4709418837675345,14.564365626231794L6.565130260521042,15.257644004814967L7.659318637274549,16.052998041789895L8.753507014028056,17.790263265365667L9.847695390781563,20.569713018263126L10.941883767535069,20.936350290619764L12.036072144288578,26.878581509275L13.130260521042084,27.782960813138217L14.22444889779559,27.771251574108742L15.318637274549099,33.65875434220066L16.412825651302605,36.7228246863129L17.507014028056112,41.5938385777157L18.60120240480962,42.51081169020119L19.695390781563127,41.066565727389765L20.789579158316634,45.08400079168019L21.883767535070138,44.920043930791714L22.97795591182365,39.410663996860194L24.072144288577157,50.19767585760573L25.16633266533066,50.55629570521395L26.260521042084168,51.30006635231587L27.354709418837675,56.21724252107023L28.44889779559118,55.76389528545474L29.54308617234469,54.3633141127772L30.637274549098198,56.45532978958932L31.731462925851705,56.366403228803414L32.82565130260521,55.88575719133495L33.91983967935872,63.84793243755066L35.014028056112224,64.73237416795763L36.10821643286573,69.75724803838466L37.20240480961924,66.94907621466834L38.296593186372746,61.9212742571309L39.390781563126254,68.36582406792198L40.48496993987976,67.0837779418586L41.57915831663327,71.72749277239647L42.67334669338677,70.06382275015467L43.767535070140276,72.93878504283082L44.861723446893784,69.76391235097492L45.9559118236473,74.61841077810226L47.050100200400806,77.92268920704839L48.14428857715431,76.60724435775717L49.23847695390782,75.997020074129L50.33266533066132,78.29801212259605L51.42685370741483,77.34270109505638L52.521042084168336,74.67096752442342L53.61523046092184,76.43557615197203L54.70941883767535,76.60457798030924L55.80360721442886,83.77189195901548L56.89779559118236,87.28291113926443L57.991983967935866,78.12253686333864L59.08617234468938,88.51223823992338L60.18036072144289,85.93821084369289L61.274549098196395,80.95352535796783L62.3687374749499,86.44334075865996L63.46292585170341,88.4642723491854L64.55711422845691,89.01866054783684L65.65130260521042,92.50584964197415L66.74549098196393,89.64777537307053L67.83967935871743,89.70534642650028L68.93386773547094,93.09668185905547L70.02805611222445,90.06548253656855L71.12224448897796,96.59482833677515L72.21643286573146,96.20198771814216L73.31062124248497,97.04975680353263L74.40480961923848,96.35679941531025L75.49899799599199,95.53044423740467L76.59318637274549,95.80236674713606L77.687374749499,98.02904552406696L78.78156312625251,101.69121918625433L79.87575150300601,104.97226745618906L80.96993987975952,87.79914083014265L82.06412825651303,98.57993269988718L83.15831663326654,105.18888083708957L84.25250501002003,103.42088045130892L85.34669338677354,106.27906144087046L86.44088176352705,105.6166130096348L87.53507014028055,102.50986318375628L88.62925851703406,103.23630433928481L89.72344689378757,108.92566300918543L90.81763527054107,108.95641347832179L91.9118236472946,109.59834274059352L93.0060120240481,110.76538854063314L94.10020040080161,109.38156870093103L95.19438877755512,107.74764493555912L96.28857715430863,107.34964285677019L97.38276553106213,111.27133098378192L98.47695390781564,114.2208925670309L99.57114228456913,109.99161057631179L100.66533066132264,107.26227526365834L101.75951903807615,112.8417842549182L102.85370741482966,116.44815574313581L103.94789579158316,116.34191886305838L105.04208416833667,115.7068217191404L106.13627254509018,114.1069734472354L107.23046092184369,116.55418936312795L108.3246492985972,114.5365252614057L109.4188376753507,116.1166341457284L110.51302605210421,117.40903560034964L111.60721442885772,119.64417660297113L112.70140280561122,105.77062813030926L113.79559118236472,112.2772938969671L114.88977955911822,118.05674470996449L115.98396793587173,121.73386492902159L117.07815631262524,123.07750968195582L118.17234468937876,122.68337932686461L119.26653306613227,124.65286327817043L120.36072144288578,123.30958299269619L121.45490981963928,120.9093789255398L122.54909819639279,123.12299963173788L123.6432865731463,124.57208565060645L124.7374749498998,124.47598660605631L125.83166332665331,122.72801340259547L126.92585170340682,124.21523989701268L128.02004008016033,123.14445181452567L129.11422845691382,124.26144230693077L130.20841683366731,125.63410218371897L131.30260521042084,123.50926379964987L132.39679358717436,119.72888876035982L133.49098196392785,128.23038742597024L134.58517034068137,131.34830142778011L135.67935871743487,130.62962718696443L136.77354709418836,129.16510118060017L137.86773547094188,127.56887558502056L138.96192384769537,123.52821589979018L140.0561122244489,127.16934689577006L141.1503006012024,130.08689276187192L142.2444889779559,130.93932298814929L143.3386773547094,126.56613582781365L144.43286573146293,131.29067675885284L145.52705410821642,134.5227138960255L146.62124248496994,132.70571985289226L147.71543086172343,134.07111921636448L148.80961923847696,133.05406422516046L149.90380761523045,133.0407984197768L150.99799599198397,134.8832365975902L152.09218436873746,134.4500983948157L153.18637274549098,136.01411474329177L154.28056112224448,135.51668411969038L155.374749498998,134.93846836383165L156.46893787575152,132.83613863928744L157.56312625250501,134.78550419002437L158.65731462925854,138.64076013908715L159.75150300601203,137.02359635429625L160.84569138276555,136.44517726453546L161.93987975951904,134.44925083926378L163.03406813627257,130.22344373936835L164.12825651302606,136.93428806662268L165.22244488977958,138.17958143199218L166.31663326653307,137.9738499339047L167.41082164328657,136.4276647914967L168.50501002004006,139.8484464772741L169.59919839679358,140.53015926221764L170.69338677354708,137.06617107017914L171.7875751503006,140.74794206571792L172.8817635270541,137.5363886240498L173.9759519038076,135.8693644258222L175.0701402805611,140.56408203449126L176.16432865731463,141.03009196971811L177.25851703406812,142.69447291834976L178.35270541082164,142.90966666734948L179.44689378757514,142.35951696913244L180.54108216432866,144.76499012659684L181.63527054108215,141.66057059047617L182.72945891783567,144.3361213106037L183.8236472945892,143.382884287772L184.9178356713427,142.9145041735422L186.0120240480962,142.29364571574936L187.1062124248497,142.8145767730356L188.20040080160322,142.4804998270882L189.29458917835672,144.77476230175068L190.38877755511024,140.059216419605L191.48296593186373,144.06492449423865L192.57715430861725,145.73947327256573L193.67134268537075,147.58742174071116L194.76553106212427,147.91205420551157L195.85971943887776,144.96028448448908L196.95390781563128,144.12441844239126L198.04809619238475,144.5866994235347L199.14228456913827,146.9650171320031L200.23647294589176,149.28999566584906L201.33066132264528,147.0849161554935L202.42484969939878,145.4013434295078L203.5190380761523,147.0371250502939L204.6132264529058,150.08587667081665L205.7074148296593,149.59217020959525L206.8016032064128,146.46716288919487L207.89579158316633,144.67294323278912L208.98997995991985,149.03342596340875L210.08416833667334,151.06433611499043L211.17835671342687,148.0752822226118L212.27254509018036,150.72052315767124L213.36673346693388,150.92391043196807L214.46092184368737,148.944932626197L215.5551102204409,150.61137863587427L216.6492985971944,151.1246505380068L217.7434869739479,151.43862658795726L218.8376753507014,146.91725557214792L219.93186372745492,151.2082907481455L221.02605210420842,149.43563711165785L222.12024048096194,149.1955250162716L223.21442885771543,152.23766030411915L224.30861723446895,150.44929078354986L225.40280561122245,152.74724307033048L226.49699398797597,152.18809497959901L227.59118236472943,151.25820922339426L228.68537074148296,152.7071128066762L229.77955911823645,151.81951740819227L230.87374749498997,152.47597875820256L231.96793587174346,151.07541874812256L233.06212424849699,152.0081364985556L234.15631262525048,154.05179546097838L235.250501002004,154.30601453215965L236.34468937875752,154.46146838866784L237.43887775551102,152.6731722372979L238.53306613226454,151.5777410201557L239.62725450901803,153.06653433688587L240.72144288577155,153.89452235744525L241.81563126252505,153.13780204984945L242.90981963927857,151.21624495120648L244.00400801603206,153.69160990104118L245.09819639278558,154.6347018178604L246.19238476953907,156.34390520592487L247.2865731462926,154.78980427610185L248.3807615230461,154.95175509372825L249.4749498997996,154.23440677502452L250.5691382765531,153.07145824046216L251.66332665330663,155.46006223430973L252.75751503006012,151.32183437992754L253.85170340681364,153.4565192989513L254.94589178356713,153.8491629282691L256.04008016032066,157.9165733230373L257.13426853707415,159.46414657945684L258.22845691382764,157.67912547079496L259.32264529058114,153.3793903074811L260.41683366733463,151.8027922098373L261.5110220440882,156.4069501015737L262.6052104208417,156.95867885561924L263.69939879759517,158.16315702989968L264.7935871743487,156.57137181875171L265.8877755511022,157.7945393541774L266.9819639278557,158.7717814259096L268.0761523046092,154.6493063138149L269.17034068136275,155.42602996550715L270.26452905811624,156.94699652412777L271.35871743486973,155.68222906094655L272.4529058116232,156.18239645620153L273.5470941883767,157.32601622518914L274.6412825651302,159.66637261933454L275.73547094188376,161.22308550778217L276.82965931863725,157.34317129256124L277.92384769539075,156.75050200309968L279.01803607214424,155.33708158962122L280.1122244488978,158.97801257891643L281.2064128256513,159.5758426359332L282.3006012024048,159.8475577427331L283.39478957915827,159.42153493246315L284.4889779559118,158.554111755092L285.5831663326653,159.5550605990225L286.6773547094188,158.69179281820098L287.7715430861723,156.9875012706131L288.86573146292585,156.3904022181166L289.95991983967934,160.11059658971513L291.05410821643284,161.96030704002L292.1482965931864,158.5973691529251L293.2424849699399,157.32828788629604L294.3366733466934,160.32256422141273L295.43086172344687,159.99898184593044L296.5250501002004,161.4594198776914L297.6192384769539,161.05249117349237L298.7134268537074,159.41095953184873L299.8076152304609,161.08266733674358L300.90180360721445,161.8795863661069L301.99599198396794,161.2464396787754L303.09018036072143,161.63793574707086L304.1843687374749,161.3736194695962L305.2785571142285,161.41051956286734L306.37274549098197,161.44386244971903L307.46693386773546,159.5886301686226L308.56112224448896,161.12679736683143L309.6553106212425,162.03157050624787L310.749498997996,161.24661313242433L311.8436873747495,160.7299506608721L312.93787575150304,159.67841735871036L314.03206412825654,161.97133283341591L315.12625250501003,161.91072332330543L316.2204408817635,162.68848413455396L317.3146292585171,162.77933714283103L318.40881763527057,160.99213483264003L319.50300601202406,161.86847082168208L320.59719438877755,161.78096994485176L321.6913827655311,162.29992376650907L322.7855711422846,159.60403261989293L323.8797595190381,157.10154177050768L324.9739478957916,162.07274564557704L326.06813627254513,165.72209374400484L327.1623246492986,164.12892491710448L328.2565130260521,161.77384830162578L329.3507014028056,164.08980298988055L330.44488977955916,163.02953919863123L331.53907815631266,163.71162772493406L332.63326653306615,163.84228424288165L333.7274549098196,163.7045263892624L334.82164328657313,161.21867706226845L335.9158316633266,163.6575953617903L337.0100200400801,163.39379632491384L338.1042084168336,159.74703093093197L339.19839679358716,160.15530804398335L340.29258517034066,161.7468812208885L341.38677354709415,163.29008219193105L342.4809619238477,164.39179840338596L343.5751503006012,162.69993013792075L344.6693386773547,164.2004421968913L345.7635270541082,164.31850923588252L346.85771543086173,164.2765920760361L347.9519038076152,161.19792007745488L349.0460921843687,164.17928695846106L350.1402805611222,163.96266437052748L351.23446893787576,164.27640905265017L352.32865731462925,164.11439843259666L353.42284569138275,165.5647453420148L354.51703406813624,165.23116853033903L355.6112224448898,166.63542089055434L356.7054108216433,165.8618344658737L357.7995991983968,162.56172974912087L358.89378757515027,160.98536618521896L359.9879759519038,157.90102836096654L361.0821643286573,164.76838738667334L362.1763527054108,166.054010099218L363.2705410821643,165.40223111739556L364.36472945891785,167.36770182571595L365.45891783567134,167.02919570726695L366.55310621242484,167.17085768166612L367.6472945891784,165.96401426407414L368.7414829659319,163.06198029747165L369.8356713426854,161.39762725244722L370.92985971943887,164.21726507199682L372.0240480961924,166.01878639495993L373.1182364729459,165.47870533507913L374.2124248496994,166.6795720495208L375.3066132264529,167.17399119779608L376.40080160320645,166.1091954138227L377.49498997995994,166.46642006193164L378.58917835671343,164.64807891677412L379.6833667334669,165.29163524531845L380.7775551102205,163.74928457197987L381.87174348697397,164.57675143692455L382.96593186372746,165.50695450085928L384.06012024048096,167.145214068865L385.1543086172345,166.67940546082085L386.248496993988,167.65766986772007L387.3426853707415,167.60971735055537L388.43687374749504,162.9833653019913L389.53106212424854,165.4520209147208L390.62525050100203,166.80902985879396L391.7194388777555,169.1395041028154L392.8136272545091,167.63296600838538L393.90781563126257,164.6897088505446L395.002004008016,165.36051698616026L396.0961923847695,166.397465505971L397.19038076152304,167.0007511624686L398.28456913827654,170.02010341747103L399.37875751503003,169.04049016428723L400.4729458917835,167.37255959321394L401.5671342685371,166.40315639740925L402.66132264529057,166.08197728901814L403.75551102204406,168.68804581355153L404.84969939879755,168.04554945937798L405.9438877755511,164.46978235576793L407.0380761523046,168.22753981313394L408.1322645290581,169.3749910365552L409.2264529058116,167.53800833610592L410.32064128256513,166.85172938041552L411.4148296593186,166.91184169616207L412.5090180360721,166.28504055740675L413.6032064128256,167.23993524989413L414.69739478957916,166.8178464600227L415.79158316633266,168.01425579944353L416.88577154308615,168.40681238707714L417.9799599198397,169.30314426655613L419.0741482965932,167.8785515454671L420.1683366733467,168.22884730705456L421.2625250501002,167.3436171824112L422.35671342685373,167.00533119252054L423.4509018036072,167.41024976073376L424.5450901803607,166.13652338419044L425.6392785571142,168.6875884505641L426.73346693386776,169.27262317629857L427.82765531062125,169.9518594033247L428.92184368737475,166.46268299576226L430.01603206412824,167.18419154144996L431.1102204408818,165.3234905315328L432.2044088176353,167.75904629738318L433.2985971943888,168.78138475309422L434.39278557114227,170.4941322574247L435.4869739478958,171.5252099809374L436.5811623246493,170.32332079645408L437.6753507014028,168.93542582533533L438.7695390781563,166.44693625221748L439.86372745490985,166.18814877938564L440.95791583166334,167.55753171245905L442.05210420841684,170.31137855651733L443.1462925851704,170.90838843894923L444.2404809619239,165.45285244112284L445.3346693386774,170.13042476175974L446.42885771543087,170.78899057177233L447.5230460921844,169.13474392367036L448.6172344689379,166.0242042750407L449.7114228456914,167.17050548508598L450.8056112224449,172.47382365792103L451.89979959919845,172.0710882546688L452.99398797595194,169.82251485978642L454.08817635270543,168.6964924712181L455.18236472945887,168.82586909720655L456.2765531062124,171.5973971587231L457.3707414829659,171.86870890397603L458.4649298597194,166.99628279423388L459.5591182364729,164.63355785368964L460.65330661322645,169.54793373383626L461.74749498997994,169.63511825252866L462.84168336673343,171.31640832464922L463.9358717434869,169.18908205362897L465.0300601202405,168.8770499388824L466.12424849699397,164.26521295785003L467.21843687374746,146.53122613937876L468.31262525050096,164.43491815047085L469.4068136272545,170.1911549867081L470.501002004008,171.75948716357772L471.5951903807615,173.57884697813046L472.68937875751504,173.4060319904988L473.78356713426854,168.02712375401248L474.87775551102203,168.40191598703996L475.9719438877755,171.22397155814903L477.0661322645291,171.83999379379432L478.16032064128257,169.97566679400407L479.25450901803606,168.95768259964743L480.34869739478955,170.7168920177167L481.4428857715431,169.56887334196762L482.5370741482966,168.25942569589643L483.6312625250501,168.88955653267013L484.7254509018036,171.8383940920849L485.81963927855713,171.10417308205726L486.9138276553106,173.28943877873155L488.0080160320641,173.15878071951943L489.1022044088176,171.63339111062302L490.19639278557116,168.27193253847364L491.29058116232466,168.51807339552337L492.38476953907815,170.24829435760034L493.4789579158317,171.63933999036206L494.5731462925852,172.16172680687862L495.6673346693387,168.89926276494478L496.7615230460922,170.17661345772788L497.85571142284573,169.1878010712793L498.9498997995992,168.55511193147683L500.0440881763527,171.3344451224067L501.1382765531062,172.5439723659724L502.23246492985976,173.95683271835742L503.32665330661325,174.0281937041338L504.42084168336675,171.0953234146119L505.51503006012024,169.05031711139983L506.6092184368738,166.24892152910692L507.7034068136273,169.52735897774068L508.7975951903808,171.76804859611963L509.89178356713427,172.70340290708367L510.9859719438878,170.77092990526234L512.0801603206413,171.74709313472232L513.1743486973949,170.55183106925926L514.2685370741483,170.75133641948995L515.3627254509018,172.27388276116997L516.4569138276553,172.78973899444856L517.5511022044088,171.8271398042431L518.6452905811623,172.57925244610664L519.7394789579158,173.0969963198201L520.8336673346693,168.0561852256132L521.9278557114228,170.3689233148137L523.0220440881764,171.53612457910998L524.1162324649298,171.4653847472786L525.2104208416833,170.37001148167911L526.3046092184369,168.80982713898334L527.3987975951903,172.2285876035182L528.4929859719439,173.53721797253607L529.5871743486974,172.34484716969672L530.6813627254509,172.2765138446874L531.7755511022044,169.27076121722496L532.8697394789579,170.50028054329073L533.9639278557114,171.68650452748395L535.058116232465,173.58300290096545L536.1523046092184,175.01387827975103L537.2464929859719,171.87454662221054L538.3406813627255,170.20004336415454L539.4348697394789,170.9096990359033L540.5290581162325,171.59815431256595L541.6232464929859,173.0273636913494L542.7174348697395,170.58597796986047L543.811623246493,170.4988527614841L544.9058116232464,170.2837868866267L546,172.89366270932098" class="rv-xy-plot__series rv-xy-plot__series--line" transform="translate(34,5)" style="opacity: 1; stroke-width: 1.5; stroke: rgb(161, 40, 100);"/><path d="M0,13.149127500386058L1.094188376753507,74.36262421661293L2.188376753507014,94.84791454768074L3.282565130260521,106.28567774347232L4.376753507014028,115.23932285093119L5.4709418837675345,122.51877543154696L6.565130260521042,126.47534154068633L7.659318637274549,130.75852730137805L8.753507014028056,133.16564267256643L9.847695390781563,137.77728593044307L10.941883767535069,139.2522028796233L12.036072144288578,140.07198855924338L13.130260521042084,143.41308757089791L14.22444889779559,144.6199683214914L15.318637274549099,144.86302938635575L16.412825651302605,144.43884397152786L17.507014028056112,146.37677740189724L18.60120240480962,148.52058322037757L19.695390781563127,150.5388804293307L20.789579158316634,151.340543991442L21.883767535070138,152.23111697657208L22.97795591182365,153.28804662485584L24.072144288577157,153.32176106966736L25.16633266533066,154.6980900279405L26.260521042084168,154.56149349189778L27.354709418837675,155.09906471257415L28.44889779559118,155.80927832660473L29.54308617234469,156.07037885528362L30.637274549098198,156.75998705789044L31.731462925851705,155.86424725451766L32.82565130260521,157.2301933004979L33.91983967935872,158.99921488138824L35.014028056112224,158.26520655036023L36.10821643286573,159.89038620701584L37.20240480961924,158.9213662877929L38.296593186372746,160.86056013847232L39.390781563126254,161.83606484863392L40.48496993987976,159.05057094649007L41.57915831663327,161.96169381075075L42.67334669338677,160.26348153227815L43.767535070140276,160.17506164355024L44.861723446893784,162.23448072901456L45.9559118236473,162.7531341082251L47.050100200400806,162.85482860155543L48.14428857715431,161.24537829869868L49.23847695390782,160.2922012382302L50.33266533066132,161.86123413497015L51.42685370741483,163.93114270210668L52.521042084168336,162.36562575784438L53.61523046092184,164.81428045422544L54.70941883767535,162.3221919486841L55.80360721442886,163.05878062612572L56.89779559118236,162.31518214407097L57.991983967935866,166.0306519084064L59.08617234468938,165.47162328583155L60.18036072144289,160.177288407271L61.274549098196395,164.7899240006787L62.3687374749499,166.2174853360451L63.46292585170341,164.78603106608386L64.55711422845691,164.95373601551782L65.65130260521042,166.79698589130348L66.74549098196393,165.27648391557722L67.83967935871743,167.38677012375263L68.93386773547094,167.00983542289146L70.02805611222445,167.0082640139215L71.12224448897796,166.6432261379831L72.21643286573146,167.1968771843715L73.31062124248497,167.456066369267L74.40480961923848,168.08875893562023L75.49899799599199,163.3927535607597L76.59318637274549,165.22176227072757L77.687374749499,166.28945963115183L78.78156312625251,168.15501086240886L79.87575150300601,168.28260035571859L80.96993987975952,165.72814913479897L82.06412825651303,164.7884748931491L83.15831663326654,168.24570524142644L84.25250501002003,168.70581729647716L85.34669338677354,167.66575607774467L86.44088176352705,165.56159803584006L87.53507014028055,168.37109349790856L88.62925851703406,169.07633460282892L89.72344689378757,167.82152553144144L90.81763527054107,165.28251176546834L91.9118236472946,167.4219260820914L93.0060120240481,170.33506089449105L94.10020040080161,170.7631514578363L95.19438877755512,168.5623820382241L96.28857715430863,170.60629417172746L97.38276553106213,169.70993957767877L98.47695390781564,165.7626093720677L99.57114228456913,169.6803478031214L100.66533066132264,169.08985336331125L101.75951903807615,172.4537376879254L102.85370741482966,170.70332480981392L103.94789579158316,164.64756115900366L105.04208416833667,164.89252740464406L106.13627254509018,169.30620571279655L107.23046092184369,172.16017542546103L108.3246492985972,172.13099946923936L109.4188376753507,169.05361683529912L110.51302605210421,171.01705608054382L111.60721442885772,171.20300619210573L112.70140280561122,173.35602424083953L113.79559118236472,170.9872939913681L114.88977955911822,164.0845352054892L115.98396793587173,170.45925006091264L117.07815631262524,170.55434317217453L118.17234468937876,171.37968918298458L119.26653306613227,170.82577127024777L120.36072144288578,169.4901133878901L121.45490981963928,171.8137454138901L122.54909819639279,173.24306191658926L123.6432865731463,170.76335418161185L124.7374749498998,168.59028350431657L125.83166332665331,170.96309819111542L126.92585170340682,172.09096647771105L128.02004008016033,172.6611941085658L129.11422845691382,171.8462193966838L130.20841683366731,171.36575715266392L131.30260521042084,171.5572689509994L132.39679358717436,170.71688194538837L133.49098196392785,172.28426208788719L134.58517034068137,170.09831981348998L135.67935871743487,172.5326662428901L136.77354709418836,173.8314827080162L137.86773547094188,172.92102587474122L138.96192384769537,174.69639099566547L140.0561122244489,168.95137417355886L141.1503006012024,171.73189080405112L142.2444889779559,171.04431879926608L143.3386773547094,172.37125388678348L144.43286573146293,174.6824886724478L145.52705410821642,173.7880582065893L146.62124248496994,172.42098591528503L147.71543086172343,173.8208162691377L148.80961923847696,173.1258900571959L149.90380761523045,175.3785548905965L150.99799599198397,172.8653424954652L152.09218436873746,170.33499479395402L153.18637274549098,173.10524704210948L154.28056112224448,175.56730127914986L155.374749498998,175.32294522271928L156.46893787575152,172.83353360575302L157.56312625250501,173.7276120554722L158.65731462925854,172.0365526364692L159.75150300601203,171.40100264103737L160.84569138276555,174.66051574322643L161.93987975951904,170.49084989137523L163.03406813627257,171.66370683565344L164.12825651302606,174.48998058984594L165.22244488977958,174.84043828102637L166.31663326653307,174.0706914529388L167.41082164328657,174.31720704024204L168.50501002004006,174.5679234969775L169.59919839679358,175.3299914695218L170.69338677354708,175.34411504950788L171.7875751503006,173.0612550883548L172.8817635270541,173.53563778166242L173.9759519038076,176.59654867402597L175.0701402805611,176.16788634828046L176.16432865731463,174.7724991483508L177.25851703406812,176.09476678046735L178.35270541082164,175.9639681057659L179.44689378757514,173.461557929328L180.54108216432866,174.9590155120364L181.63527054108215,173.84958669715687L182.72945891783567,173.44339467452582L183.8236472945892,175.1194013764607L184.9178356713427,176.30635365172864L186.0120240480962,175.61162267162743L187.1062124248497,171.4304742343328L188.20040080160322,173.42590619190034L189.29458917835672,174.82435804522174L190.38877755511024,173.6590579967902L191.48296593186373,174.6028800824523L192.57715430861725,174.7841690517603L193.67134268537075,174.17097645504523L194.76553106212427,175.32988492793754L195.85971943887776,177.22948461753893L196.95390781563128,174.97630645673425L198.04809619238475,170.40152771250067L199.14228456913827,175.97394283063397L200.23647294589176,174.8495581707442L201.33066132264528,176.37381033423395L202.42484969939878,174.9380969093003L203.5190380761523,173.41273372221005L204.6132264529058,176.62142659440215L205.7074148296593,176.56318201775548L206.8016032064128,176.33668966403667L207.89579158316633,176.70966544687025L208.98997995991985,176.31137292551304L210.08416833667334,175.98711379027242L211.17835671342687,177.5104047205601L212.27254509018036,175.88168973819987L213.36673346693388,176.2820994353895L214.46092184368737,174.5444272681082L215.5551102204409,176.09290759134106L216.6492985971944,173.71066951217594L217.7434869739479,175.6425802005845L218.8376753507014,175.07397029546163L219.93186372745492,174.1429013844809L221.02605210420842,176.22268032115014L222.12024048096194,177.63045254544227L223.21442885771543,177.28141502270054L224.30861723446895,176.26167138146772L225.40280561122245,176.80638346230597L226.49699398797597,176.94522464529345L227.59118236472943,176.57419509646022L228.68537074148296,176.83175539700616L229.77955911823645,175.05405424502854L230.87374749498997,177.73365950856035L231.96793587174346,175.10314141168016L233.06212424849699,176.159440270667L234.15631262525048,177.06649856095643L235.250501002004,175.84215262008186L236.34468937875752,173.49648358289005L237.43887775551102,177.17526557936316L238.53306613226454,178.00598154775196L239.62725450901803,179.45668638228716L240.72144288577155,176.71405621329495L241.81563126252505,177.41624729191278L242.90981963927857,176.86832225546453L244.00400801603206,177.86596349761822L245.09819639278558,175.9947760172469L246.19238476953907,177.85089475276695L247.2865731462926,177.19161435833914L248.3807615230461,174.47010591774935L249.4749498997996,176.71834243938687L250.5691382765531,178.63588633240852L251.66332665330663,176.16715482932184L252.75751503006012,175.92546751292767L253.85170340681364,177.97373340337157L254.94589178356713,173.24185538471625L256.04008016032066,176.129578138051L257.13426853707415,175.7064225576154L258.22845691382764,177.18738730404303L259.32264529058114,178.335682879624L260.41683366733463,178.09466220976478L261.5110220440882,177.5526710031152L262.6052104208417,178.40355740598034L263.69939879759517,174.95167695993422L264.7935871743487,174.2956445503092L265.8877755511022,175.5984524875195L266.9819639278557,175.82790134685007L268.0761523046092,175.3340972457863L269.17034068136275,177.56632772647157L270.26452905811624,179.08627953116942L271.35871743486973,179.03661080819646L272.4529058116232,177.49822652864464L273.5470941883767,176.9734060510289L274.6412825651302,177.54626492579268L275.73547094188376,179.0215106028687L276.82965931863725,177.44580946599115L277.92384769539075,177.92816852603855L279.01803607214424,175.64674594149034L280.1122244488978,174.2096229765773L281.2064128256513,178.79524518114323L282.3006012024048,178.96057129907751L283.39478957915827,174.8176299493451L284.4889779559118,179.56972160982613L285.5831663326653,180.10936104083072L286.6773547094188,175.1468375620459L287.7715430861723,178.4473940845768L288.86573146292585,176.95080733928484L289.95991983967934,176.63846006250344L291.05410821643284,177.26156536898236L292.1482965931864,176.19838376480743L293.2424849699399,177.00484377874818L294.3366733466934,179.99944575376398L295.43086172344687,178.0877383573568L296.5250501002004,178.62335382213976L297.6192384769539,177.2020315721384L298.7134268537074,178.56177943674993L299.8076152304609,178.36825321240516L300.90180360721445,177.11508001015446L301.99599198396794,178.58355875513524L303.09018036072143,178.32929244425594L304.1843687374749,178.64316764880724L305.2785571142285,178.6616613766768L306.37274549098197,175.80835927027752L307.46693386773546,180.22632730580085L308.56112224448896,177.45207116340268L309.6553106212425,173.67635271023852L310.749498997996,173.36463161468095L311.8436873747495,175.80211621817858L312.93787575150304,179.0045181627026L314.03206412825654,179.5748808561659L315.12625250501003,179.93443683612355L316.2204408817635,178.00543199869713L317.3146292585171,180.12119720441044L318.40881763527057,178.88136876630395L319.50300601202406,175.59191951708726L320.59719438877755,177.64265154089628L321.6913827655311,176.32117271720944L322.7855711422846,176.62498039340835L323.8797595190381,179.1107925758157L324.9739478957916,178.96995915555885L326.06813627254513,179.1686508562324L327.1623246492986,179.47351939032367L328.2565130260521,179.61920104342707L329.3507014028056,177.6504713580014L330.44488977955916,177.71721625337807L331.53907815631266,176.0803942847942L332.63326653306615,176.89900125002916L333.7274549098196,177.85869415182046L334.82164328657313,178.96857037400773L335.9158316633266,178.90096506075463L337.0100200400801,179.06399400526982L338.1042084168336,179.4021470199229L339.19839679358716,179.9932910330905L340.29258517034066,178.0175083849135L341.38677354709415,179.16903101018747L342.4809619238477,177.2892716784179L343.5751503006012,179.40320819905432L344.6693386773547,177.64539055393337L345.7635270541082,177.79350635819657L346.85771543086173,179.1156581163898L347.9519038076152,180.25664281576053L349.0460921843687,179.81053798741985L350.1402805611222,180.22788964853615L351.23446893787576,177.7397094305428L352.32865731462925,179.15251546389362L353.42284569138275,177.51189168099742L354.51703406813624,181.58554054189088L355.6112224448898,179.0927644095947L356.7054108216433,178.12659496154708L357.7995991983968,180.51114680852544L358.89378757515027,178.97058561792377L359.9879759519038,177.47709154172284L361.0821643286573,180.4502487707511L362.1763527054108,179.881905394334L363.2705410821643,177.07507247079147L364.36472945891785,177.0759735338501L365.45891783567134,178.23705240506723L366.55310621242484,180.64821227877215L367.6472945891784,178.69219821904423L368.7414829659319,181.39226713139055L369.8356713426854,179.9747939739026L370.92985971943887,178.17501058071645L372.0240480961924,179.6796892458881L373.1182364729459,178.5544068538024L374.2124248496994,180.3866965004194L375.3066132264529,179.97799303831155L376.40080160320645,178.11729907879626L377.49498997995994,179.71686376761406L378.58917835671343,178.1068085582228L379.6833667334669,178.0192210703052L380.7775551102205,181.73746454196183L381.87174348697397,180.856845286329L382.96593186372746,180.69458273094037L384.06012024048096,180.329665396234L385.1543086172345,179.00185322467962L386.248496993988,179.44582208834282L387.3426853707415,179.36145999960968L388.43687374749504,177.8828750802953L389.53106212424854,178.58159401616504L390.62525050100203,179.1532468169926L391.7194388777555,176.28202185886863L392.8136272545091,178.55980610474631L393.90781563126257,179.14533469944982L395.002004008016,180.0001580289027L396.0961923847695,180.58848251647754L397.19038076152304,180.31138090987747L398.28456913827654,181.07271638060794L399.37875751503003,179.37294543428482L400.4729458917835,180.26753927918577L401.5671342685371,178.8432126101838L402.66132264529057,180.6095115097443L403.75551102204406,179.99119033910478L404.84969939879755,176.09769527402517L405.9438877755511,177.7712122722989L407.0380761523046,178.77152176055523L408.1322645290581,177.40083248045343L409.2264529058116,178.7143499805059L410.32064128256513,179.86698906037236L411.4148296593186,181.12563070665746L412.5090180360721,179.70748934758666L413.6032064128256,180.40626674898186L414.69739478957916,181.0101639582467L415.79158316633266,179.28293637251767L416.88577154308615,179.09039016429642L417.9799599198397,180.1932194160957L419.0741482965932,181.26815392640876L420.1683366733467,180.24286341231166L421.2625250501002,180.0939874213436L422.35671342685373,178.86718061952703L423.4509018036072,178.7385835721524L424.5450901803607,177.80249689538866L425.6392785571142,181.13708221301044L426.73346693386776,179.7322859005921L427.82765531062125,179.63381844636066L428.92184368737475,181.5881792654321L430.01603206412824,176.75138009117688L431.1102204408818,180.2658189414674L432.2044088176353,179.65560707726394L433.2985971943888,181.59119281491516L434.39278557114227,181.0810498960231L435.4869739478958,179.3821593472846L436.5811623246493,178.11456738454388L437.6753507014028,181.19520648719006L438.7695390781563,180.51088676953415L439.86372745490985,180.1175410212469L440.95791583166334,178.8735835687548L442.05210420841684,182.646401528568L443.1462925851704,181.46593040443986L444.2404809619239,179.02846411407987L445.3346693386774,178.78478173852412L446.42885771543087,179.67162802963637L447.5230460921844,177.78237051646954L448.6172344689379,179.13935246916344L449.7114228456914,177.30055112543653L450.8056112224449,178.76275454358054L451.89979959919845,178.5416271602596L452.99398797595194,180.78896259878948L454.08817635270543,180.55541011207936L455.18236472945887,180.2420195621735L456.2765531062124,179.83905217686618L457.3707414829659,180.84673083336634L458.4649298597194,177.05417875930502L459.5591182364729,179.29280550607686L460.65330661322645,179.80016406025433L461.74749498997994,181.23041467582507L462.84168336673343,182.44856232779537L463.9358717434869,177.55908264630472L465.0300601202405,178.97636916566876L466.12424849699397,180.63331904896816L467.21843687374746,181.32940508415496L468.31262525050096,177.8535024277469L469.4068136272545,180.4837205451291L470.501002004008,180.6130140797634L471.5951903807615,181.58683328933964L472.68937875751504,181.56165625293806L473.78356713426854,181.01164877116616L474.87775551102203,179.74183724091728L475.9719438877755,178.79045503835957L477.0661322645291,179.20984308685152L478.16032064128257,181.26339538341907L479.25450901803606,181.68011150032953L480.34869739478955,180.2373276948756L481.4428857715431,181.46761602873661L482.5370741482966,181.6562219940885L483.6312625250501,179.36511539402852L484.7254509018036,180.27416232051917L485.81963927855713,179.28849462248797L486.9138276553106,177.18015546439696L488.0080160320641,180.91474821579806L489.1022044088176,182.18198931703765L490.19639278557116,181.95344234277349L491.29058116232466,182.5276235905263L492.38476953907815,180.21759980469304L493.4789579158317,180.93735016909568L494.5731462925852,179.57118518929337L495.6673346693387,180.89511605556578L496.7615230460922,180.88019460683898L497.85571142284573,179.28054235825326L498.9498997995992,181.1279495808063L500.0440881763527,179.78528788893277L501.1382765531062,180.7010197647812L502.23246492985976,178.699158231589L503.32665330661325,179.1833918954575L504.42084168336675,181.75879685105704L505.51503006012024,180.0078610578059L506.6092184368738,178.345221868076L507.7034068136273,178.91632394698402L508.7975951903808,182.00339984014946L509.89178356713427,181.30020620376067L510.9859719438878,178.37879687413593L512.0801603206413,180.44263247938028L513.1743486973949,180.375754434021L514.2685370741483,181.05495945824558L515.3627254509018,182.38839088262924L516.4569138276553,181.75548575324123L517.5511022044088,180.02828145211055L518.6452905811623,180.49189639728053L519.7394789579158,180.43001848008L520.8336673346693,181.0625934965985L521.9278557114228,181.03959728444096L523.0220440881764,181.9536203448042L524.1162324649298,180.82502006217553L525.2104208416833,178.8115228209119L526.3046092184369,180.44213094031386L527.3987975951903,180.71643797271807L528.4929859719439,181.20637525479083L529.5871743486974,181.92276523554582L530.6813627254509,181.64622740274342L531.7755511022044,180.27291750650824L532.8697394789579,180.82522465597307L533.9639278557114,180.009535606187L535.058116232465,178.50047548596933L536.1523046092184,180.00300115167542L537.2464929859719,182.83541910493392L538.3406813627255,181.76233761960077L539.4348697394789,182.4284528617758L540.5290581162325,181.2940587868352L541.6232464929859,179.47914821334564L542.7174348697395,181.10830317031426L543.811623246493,182.09754031557145L544.9058116232464,182.43036817593833L546,178.82507099550895" class="rv-xy-plot__series rv-xy-plot__series--line" transform="translate(34,5)" style="opacity: 1; stroke-width: 1.5; stroke: rgb(71, 154, 95);"/><g class="rv-xy-plot__series rv-xy-plot__series--mark" transform="translate(34,5)"><circle r="2" cx="546" cy="178.82507099550895" style="opacity: 1; stroke: rgb(71, 154, 95); fill: rgb(71, 154, 95); stroke-width: 1;"/></g><g class="rv-xy-plot__series rv-xy-plot__series--mark" transform="translate(34,5)"><circle r="2" cx="546" cy="172.89366270932098" style="opacity: 1; stroke: rgb(161, 40, 100); fill: rgb(161, 40, 100); stroke-width: 1;"/></g><defs class="rv-gradient-defs"><linearGradient id="leftFadeGradient" x1="0" x2="1" y1="0" y2="0"><stop offset="0%" stop-color="white" stop-opacity="1"/><stop offset="60%" stop-color="white" stop-opacity="1"/><stop offset="100%" stop-color="white" stop-opacity="0"/></linearGradient><linearGradient id="rightFadeGradient" x1="1" x2="0" y1="0" y2="0"><stop offset="0%" stop-color="white" stop-opacity="1"/><stop offset="100%" stop-color="white" stop-opacity="0"/></linearGradient><linearGradient id="bottomFadeGradient" x1="0" x2="0" y1="1" y2="0"><stop offset="0%" stop-color="white" stop-opacity="1"/><stop offset="40%" stop-color="white" stop-opacity="1"/><stop offset="100%" stop-color="white" stop-opacity="0"/></linearGradient><linearGradient id="topFadeGradient" x1="0" x2="0" y1="0" y2="1"><stop offset="0%" stop-color="white" stop-opacity="1"/><stop offset="100%" stop-color="white" stop-opacity="0"/></linearGradient></defs><g class="rv-xy-plot__borders plot-border"><rect class="rv-xy-plot__borders-bottom plot-border-bottom" x="0" y="234" width="600" height="30" style="fill: url(&quot;#bottomFadeGradient&quot;); opacity: 1;"/><rect class="rv-xy-plot__borders-left plot-border-left" x="0" y="0" width="34" height="264" style="fill: url(&quot;#leftFadeGradient&quot;); opacity: 1;"/><rect class="rv-xy-plot__borders-right plot-border-right" x="580" y="0" width="20" height="264" style="fill: url(&quot;#rightFadeGradient&quot;); opacity: 1;"/><rect class="rv-xy-plot__borders-top plot-border-top" x="0" y="0" width="600" height="5" style="fill: url(&quot;#topFadeGradient&quot;); opacity: 1;"/></g><g transform="translate(34,234)" class="rv-xy-plot__axis rv-xy-plot__axis--horizontal"><line x1="0" x2="546" y1="0" y2="0" class="rv-xy-plot__axis__line"/><g transform="translate(0, 0)" class="rv-xy-plot__axis__ticks"/></g><g transform="translate(34,234)" class="rv-xy-plot__axis rv-xy-plot__axis--horizontal" style="font-family: &quot;Source Sans Pro&quot;; fill: rgb(107, 107, 118); font-size: 11px;"><line x1="0" x2="546" y1="0" y2="0" class="rv-xy-plot__axis__line" style="font-family: &quot;Source Sans Pro&quot;; fill: rgb(107, 107, 118); font-size: 11px; stroke-width: 0;"/><g transform="translate(0, 0)" class="rv-xy-plot__axis__ticks"><g transform="translate(0, 0)" class="rv-xy-plot__axis__tick" style="font-family: &quot;Source Sans Pro&quot;; fill: rgb(107, 107, 118); font-size: 11px;"><line x1="0" x2="0" y1="-6" y2="6" class="rv-xy-plot__axis__tick__line" style="font-family: &quot;Source Sans Pro&quot;; fill: rgb(107, 107, 118); font-size: 11px; stroke-width: 0;"/><text text-anchor="middle" dy="0.72em" transform="translate(0, 14)" class="rv-xy-plot__axis__tick__text" style="font-family: sans-serif; fill: rgb(107, 107, 118); font-size: 11px;">0</text></g><g transform="translate(109.4188376753507, 0)" class="rv-xy-plot__axis__tick" style="font-family: &quot;Source Sans Pro&quot;; fill: rgb(107, 107, 118); font-size: 11px;"><line x1="0" x2="0" y1="-6" y2="6" class="rv-xy-plot__axis__tick__line" style="font-family: &quot;Source Sans Pro&quot;; fill: rgb(107, 107, 118); font-size: 11px; stroke-width: 0;"/><text text-anchor="middle" dy="0.72em" transform="translate(0, 14)" class="rv-xy-plot__axis__tick__text" style="font-family: sans-serif; fill: rgb(107, 107, 118); font-size: 11px;">100</text></g><g transform="translate(218.8376753507014, 0)" class="rv-xy-plot__axis__tick" style="font-family: &quot;Source Sans Pro&quot;; fill: rgb(107, 107, 118); font-size: 11px;"><line x1="0" x2="0" y1="-6" y2="6" class="rv-xy-plot__axis__tick__line" style="font-family: &quot;Source Sans Pro&quot;; fill: rgb(107, 107, 118); font-size: 11px; stroke-width: 0;"/><text text-anchor="middle" dy="0.72em" transform="translate(0, 14)" class="rv-xy-plot__axis__tick__text" style="font-family: sans-serif; fill: rgb(107, 107, 118); font-size: 11px;">200</text></g><g transform="translate(328.2565130260521, 0)" class="rv-xy-plot__axis__tick" style="font-family: &quot;Source Sans Pro&quot;; fill: rgb(107, 107, 118); font-size: 11px;"><line x1="0" x2="0" y1="-6" y2="6" class="rv-xy-plot__axis__tick__line" style="font-family: &quot;Source Sans Pro&quot;; fill: rgb(107, 107, 118); font-size: 11px; stroke-width: 0;"/><text text-anchor="middle" dy="0.72em" transform="translate(0, 14)" class="rv-xy-plot__axis__tick__text" style="font-family: sans-serif; fill: rgb(107, 107, 118); font-size: 11px;">300</text></g><g transform="translate(437.6753507014028, 0)" class="rv-xy-plot__axis__tick" style="font-family: &quot;Source Sans Pro&quot;; fill: rgb(107, 107, 118); font-size: 11px;"><line x1="0" x2="0" y1="-6" y2="6" class="rv-xy-plot__axis__tick__line" style="font-family: &quot;Source Sans Pro&quot;; fill: rgb(107, 107, 118); font-size: 11px; stroke-width: 0;"/><text text-anchor="middle" dy="0.72em" transform="translate(0, 14)" class="rv-xy-plot__axis__tick__text" style="font-family: sans-serif; fill: rgb(107, 107, 118); font-size: 11px;">400</text></g></g><g transform="translate(0, 0)" class="rv-xy-plot__axis__title"><g transform="translate(540, -6) rotate(0)" style="text-anchor: end; font-family: &quot;Source Sans Pro&quot;; fill: rgb(107, 107, 118); font-size: 11px;"><text style="font-family: sans-serif; fill: rgb(107, 107, 118); font-size: 11px;">Step</text></g></g></g><g transform="translate(34,234)" class="rv-xy-plot__axis rv-xy-plot__axis--horizontal"><line x1="0" x2="0" y1="0" y2="0" class="rv-xy-plot__axis__line"/><g transform="translate(0, 0)" class="rv-xy-plot__axis__ticks"><g transform="translate(0, 0)" class="rv-xy-plot__axis__tick"><line x1="0" x2="0" y1="-6" y2="6" class="rv-xy-plot__axis__tick__line"/><text text-anchor="middle" dy="0.72em" transform="translate(0, 14)" class="rv-xy-plot__axis__tick__text" style="font-family: sans-serif;"/></g><g transform="translate(109.4188376753507, 0)" class="rv-xy-plot__axis__tick"><line x1="0" x2="0" y1="-6" y2="6" class="rv-xy-plot__axis__tick__line"/><text text-anchor="middle" dy="0.72em" transform="translate(0, 14)" class="rv-xy-plot__axis__tick__text" style="font-family: sans-serif;"/></g><g transform="translate(218.8376753507014, 0)" class="rv-xy-plot__axis__tick"><line x1="0" x2="0" y1="-6" y2="6" class="rv-xy-plot__axis__tick__line"/><text text-anchor="middle" dy="0.72em" transform="translate(0, 14)" class="rv-xy-plot__axis__tick__text" style="font-family: sans-serif;"/></g><g transform="translate(328.2565130260521, 0)" class="rv-xy-plot__axis__tick"><line x1="0" x2="0" y1="-6" y2="6" class="rv-xy-plot__axis__tick__line"/><text text-anchor="middle" dy="0.72em" transform="translate(0, 14)" class="rv-xy-plot__axis__tick__text" style="font-family: sans-serif;"/></g><g transform="translate(437.6753507014028, 0)" class="rv-xy-plot__axis__tick"><line x1="0" x2="0" y1="-6" y2="6" class="rv-xy-plot__axis__tick__line"/><text text-anchor="middle" dy="0.72em" transform="translate(0, 14)" class="rv-xy-plot__axis__tick__text" style="font-family: sans-serif;"/></g></g></g><g transform="translate(0,5)" class="rv-xy-plot__axis rv-xy-plot__axis--vertical" style="font-family: &quot;Source Sans Pro&quot;; fill: rgb(107, 107, 118); font-size: 11px;"><line x1="34" x2="34" y1="0" y2="229" class="rv-xy-plot__axis__line" style="font-family: &quot;Source Sans Pro&quot;; fill: rgb(107, 107, 118); font-size: 11px; stroke: none;"/><g transform="translate(34, 0)" class="rv-xy-plot__axis__ticks"><g transform="translate(0, 229)" class="rv-xy-plot__axis__tick" style="font-family: &quot;Source Sans Pro&quot;; fill: rgb(107, 107, 118); font-size: 11px;"><line y1="0" y2="0" x1="6" x2="-6" class="rv-xy-plot__axis__tick__line" style="font-family: &quot;Source Sans Pro&quot;; fill: rgb(107, 107, 118); font-size: 11px; stroke: none;"/><text text-anchor="end" dy="0.32em" transform="translate(-14, 0)" class="rv-xy-plot__axis__tick__text" style="font-family: sans-serif; fill: rgb(107, 107, 118); font-size: 11px;">0</text></g><g transform="translate(0, 179.1933881138675)" class="rv-xy-plot__axis__tick" style="font-family: &quot;Source Sans Pro&quot;; fill: rgb(107, 107, 118); font-size: 11px;"><line y1="0" y2="0" x1="6" x2="-6" class="rv-xy-plot__axis__tick__line" style="font-family: &quot;Source Sans Pro&quot;; fill: rgb(107, 107, 118); font-size: 11px; stroke: none;"/><text text-anchor="end" dy="0.32em" transform="translate(-14, 0)" class="rv-xy-plot__axis__tick__text" style="font-family: sans-serif; fill: rgb(107, 107, 118); font-size: 11px;">0.2</text></g><g transform="translate(0, 129.38677622773503)" class="rv-xy-plot__axis__tick" style="font-family: &quot;Source Sans Pro&quot;; fill: rgb(107, 107, 118); font-size: 11px;"><line y1="0" y2="0" x1="6" x2="-6" class="rv-xy-plot__axis__tick__line" style="font-family: &quot;Source Sans Pro&quot;; fill: rgb(107, 107, 118); font-size: 11px; stroke: none;"/><text text-anchor="end" dy="0.32em" transform="translate(-14, 0)" class="rv-xy-plot__axis__tick__text" style="font-family: sans-serif; fill: rgb(107, 107, 118); font-size: 11px;">0.4</text></g><g transform="translate(0, 79.58016434160254)" class="rv-xy-plot__axis__tick" style="font-family: &quot;Source Sans Pro&quot;; fill: rgb(107, 107, 118); font-size: 11px;"><line y1="0" y2="0" x1="6" x2="-6" class="rv-xy-plot__axis__tick__line" style="font-family: &quot;Source Sans Pro&quot;; fill: rgb(107, 107, 118); font-size: 11px; stroke: none;"/><text text-anchor="end" dy="0.32em" transform="translate(-14, 0)" class="rv-xy-plot__axis__tick__text" style="font-family: sans-serif; fill: rgb(107, 107, 118); font-size: 11px;">0.6</text></g><g transform="translate(0, 29.77355245547006)" class="rv-xy-plot__axis__tick" style="font-family: &quot;Source Sans Pro&quot;; fill: rgb(107, 107, 118); font-size: 11px;"><line y1="0" y2="0" x1="6" x2="-6" class="rv-xy-plot__axis__tick__line" style="font-family: &quot;Source Sans Pro&quot;; fill: rgb(107, 107, 118); font-size: 11px; stroke: none;"/><text text-anchor="end" dy="0.32em" transform="translate(-14, 0)" class="rv-xy-plot__axis__tick__text" style="font-family: sans-serif; fill: rgb(107, 107, 118); font-size: 11px;">0.8</text></g></g></g></svg></g><style xmlns="http://www.w3.org/1999/xhtml">/*&lt;![CDATA[*/<br />text { font-size: 10px; fill: black }<br />.react-vis-magic-css-import-rule{display:inherit}.rv-treemap{font-size:12px;position:relative}.rv-treemap__leaf{overflow:hidden;position:absolute}.rv-treemap__leaf--circle{align-items:center;border-radius:100%;display:flex;justify-content:center}.rv-treemap__leaf__content{overflow:hidden;padding:10px;text-overflow:ellipsis}.rv-xy-plot{color:#c3c3c3;position:relative}.rv-xy-plot canvas{pointer-events:none}.rv-xy-plot .rv-xy-canvas{pointer-events:none;position:absolute}.rv-xy-plot__inner{display:block}.rv-xy-plot__axis__line{fill:none;stroke-width:2px;stroke:#e6e6e9}.rv-xy-plot__axis__tick__line{stroke:#e6e6e9}.rv-xy-plot__axis__tick__text{fill:#6b6b76;font-size:11px}.rv-xy-plot__axis__title text{fill:#6b6b76;font-size:11px}.rv-xy-plot__grid-lines__line{stroke:#e6e6e9}.rv-xy-plot__circular-grid-lines__line{fill-opacity:0;stroke:#e6e6e9}.rv-xy-plot__series,.rv-xy-plot__series path{pointer-events:all}.rv-xy-plot__series--line{fill:none;stroke:#000;stroke-width:2px}.rv-crosshair{position:absolute;font-size:11px;pointer-events:none}.rv-crosshair__line{background:#47d3d9;width:1px}.rv-crosshair__inner{position:absolute;text-align:left;top:0}.rv-crosshair__inner__content{border-radius:4px;background:#3a3a48;color:#fff;font-size:12px;padding:7px 10px;box-shadow:0 2px 4px rgba(0,0,0,0.5)}.rv-crosshair__inner--left{right:4px}.rv-crosshair__inner--right{left:4px}.rv-crosshair__title{font-weight:bold;white-space:nowrap}.rv-crosshair__item{white-space:nowrap}.rv-hint{position:absolute;pointer-events:none}.rv-hint__content{border-radius:4px;padding:7px 10px;font-size:12px;background:#3a3a48;box-shadow:0 2px 4px rgba(0,0,0,0.5);color:#fff;text-align:left;white-space:nowrap}.rv-discrete-color-legend{box-sizing:border-box;overflow-y:auto;font-size:12px}.rv-discrete-color-legend.horizontal{white-space:nowrap}.rv-discrete-color-legend-item{color:#3a3a48;border-radius:1px;padding:9px 10px}.rv-discrete-color-legend-item.horizontal{display:inline-block}.rv-discrete-color-legend-item.horizontal .rv-discrete-color-legend-item__title{margin-left:0;display:block}.rv-discrete-color-legend-item__color{display:inline-block;vertical-align:middle;overflow:visible}.rv-discrete-color-legend-item__color__path{stroke:#dcdcdc;stroke-width:2px}.rv-discrete-color-legend-item__title{margin-left:10px}.rv-discrete-color-legend-item.disabled{color:#b8b8b8}.rv-discrete-color-legend-item.clickable{cursor:pointer}.rv-discrete-color-legend-item.clickable:hover{background:#f9f9f9}.rv-search-wrapper{display:flex;flex-direction:column}.rv-search-wrapper__form{flex:0}.rv-search-wrapper__form__input{width:100%;color:#a6a6a5;border:1px solid #e5e5e4;padding:7px 10px;font-size:12px;box-sizing:border-box;border-radius:2px;margin:0 0 9px;outline:0}.rv-search-wrapper__contents{flex:1;overflow:auto}.rv-continuous-color-legend{font-size:12px}.rv-continuous-color-legend .rv-gradient{height:4px;border-radius:2px;margin-bottom:5px}.rv-continuous-size-legend{font-size:12px}.rv-continuous-size-legend .rv-bubbles{text-align:justify;overflow:hidden;margin-bottom:5px;width:100%}.rv-continuous-size-legend .rv-bubble{background:#d8d9dc;display:inline-block;vertical-align:bottom}.rv-continuous-size-legend .rv-spacer{display:inline-block;font-size:0;line-height:0;width:100%}.rv-legend-titles{height:16px;position:relative}.rv-legend-titles__left,.rv-legend-titles__right,.rv-legend-titles__center{position:absolute;white-space:nowrap;overflow:hidden}.rv-legend-titles__center{display:block;text-align:center;width:100%}.rv-legend-titles__right{right:0}.rv-radial-chart .rv-xy-plot__series--label{pointer-events:none}<br /><br />/*]]&gt;*/</style></svg>